<?xml version="1.0" encoding="utf-8"?>
<svg viewBox="54.327 154.248 419.755 262.873" xmlns="http://www.w3.org/2000/svg">
    <path d="M 233.184 224.82 L 231.004 224.82 C 230.817 224.373 230.567 223.803 230.254 223.11 C 229.947 222.423 229.617 221.677 229.264 220.87 C 228.911 220.07 228.534 219.247 228.134 218.4 C 227.727 217.547 227.347 216.743 226.994 215.99 C 226.641 215.23 226.311 214.553 226.004 213.96 C 225.697 213.36 225.451 212.903 225.264 212.59 C 225.057 214.79 224.887 217.173 224.754 219.74 C 224.627 222.307 224.517 224.897 224.424 227.51 L 221.764 227.51 C 221.837 225.83 221.921 224.137 222.014 222.43 C 222.107 220.723 222.214 219.043 222.334 217.39 C 222.454 215.737 222.584 214.127 222.724 212.56 C 222.864 210.993 223.017 209.51 223.184 208.11 L 225.564 208.11 C 226.071 208.93 226.614 209.9 227.194 211.02 C 227.774 212.14 228.351 213.31 228.924 214.53 C 229.504 215.757 230.064 216.98 230.604 218.2 C 231.151 219.42 231.647 220.537 232.094 221.55 C 232.541 220.537 233.034 219.42 233.574 218.2 C 234.114 216.98 234.674 215.757 235.254 214.53 C 235.834 213.31 236.414 212.14 236.994 211.02 C 237.574 209.9 238.114 208.93 238.614 208.11 L 240.994 208.11 C 241.627 214.363 242.104 220.83 242.424 227.51 L 239.764 227.51 C 239.671 224.897 239.557 222.307 239.424 219.74 C 239.297 217.173 239.131 214.79 238.924 212.59 C 238.737 212.903 238.491 213.36 238.184 213.96 C 237.877 214.553 237.544 215.23 237.184 215.99 C 236.831 216.743 236.454 217.547 236.054 218.4 C 235.654 219.247 235.277 220.07 234.924 220.87 C 234.564 221.677 234.231 222.423 233.924 223.11 C 233.617 223.803 233.371 224.373 233.184 224.82 Z" transform="matrix(17.198671340942383, 0, 0, 8.374253273010254, -3727.231201171875, -1532.3787841796875)" style="fill: rgb(112, 121, 136); white-space: pre;"/>
    <path d="M 231.224 225.22 L 229.364 225.22 C 229.204 224.833 228.994 224.347 228.734 223.76 C 228.467 223.173 228.184 222.537 227.884 221.85 C 227.584 221.163 227.261 220.46 226.914 219.74 C 226.574 219.013 226.254 218.327 225.954 217.68 C 225.647 217.04 225.364 216.463 225.104 215.95 C 224.837 215.443 224.627 215.053 224.474 214.78 C 224.294 216.66 224.151 218.693 224.044 220.88 C 223.931 223.073 223.834 225.283 223.754 227.51 L 221.484 227.51 C 221.551 226.077 221.624 224.633 221.704 223.18 C 221.777 221.72 221.867 220.287 221.974 218.88 C 222.074 217.467 222.184 216.093 222.304 214.76 C 222.424 213.42 222.557 212.153 222.704 210.96 L 224.734 210.96 C 225.161 211.66 225.621 212.487 226.114 213.44 C 226.607 214.4 227.101 215.4 227.594 216.44 C 228.087 217.48 228.567 218.523 229.034 219.57 C 229.494 220.61 229.914 221.56 230.294 222.42 C 230.681 221.56 231.104 220.61 231.564 219.57 C 232.024 218.523 232.501 217.48 232.994 216.44 C 233.487 215.4 233.981 214.4 234.474 213.44 C 234.967 212.487 235.431 211.66 235.864 210.96 L 237.894 210.96 C 238.434 216.293 238.841 221.81 239.114 227.51 L 236.844 227.51 C 236.764 225.283 236.667 223.073 236.554 220.88 C 236.441 218.693 236.297 216.66 236.124 214.78 C 235.964 215.053 235.754 215.443 235.494 215.95 C 235.227 216.463 234.944 217.04 234.644 217.68 C 234.344 218.327 234.021 219.013 233.674 219.74 C 233.334 220.46 233.014 221.163 232.714 221.85 C 232.407 222.537 232.124 223.173 231.864 223.76 C 231.597 224.347 231.384 224.833 231.224 225.22 Z" transform="matrix(17.198671340942383, 0, 0, 8.374253273010254, -3696.30419921875, -1549.192626953125)" style="line-height: 38.2124px; paint-order: fill; white-space: pre;"/>
</svg>